<svg version="1.1" xmlns="http://www.w3.org/2000/svg" xmlns:xlink="http://www.w3.org/1999/xlink" width="150.86166" height="91.54304" viewBox="0,0,150.86166,91.54304"><g transform="translate(-208.61173,-113.28783)"><g data-paper-data="{&quot;isPaintingLayer&quot;:true}" stroke="none" stroke-width="1" stroke-linecap="butt" stroke-linejoin="miter" stroke-miterlimit="10" stroke-dasharray="" stroke-dashoffset="0" style="mix-blend-mode: normal"><g><path d="M248.41,201.6l-10.103,-0.6l-16.089,-5.875l-8.716,-8.925l-4.247,-15.094l6.127,-14.531l9.875,-8.775l10.36,-3.7l11.274,-1.6l11.666,0.9l12.225,3.2l12.252,5.9l5.778,8l0.997,4.6l0.996,8.378l-1.594,8.322l-4.184,8.1l-5.479,5.2l-9.065,5.1l-13.249,2.6l-8.824,-1.2" fill="#ffffff" fill-rule="evenodd"/><path d="M247.695,114.125l3.213,1.5l2.914,4.5l-0.822,6.15l-6.109,2.7l-5.896,-1.275l-3.461,-5.325l0.897,-4.05l4.558,-3.3l4.706,-0.9" fill="#ef463c" fill-rule="evenodd"/><path d="M283.259,163.55l2.54,11.4v8.175l-4.856,0.9l-4.184,-2.925l-0.897,5.625c0,0 -4.109,7.725 -4.259,7.95c-0.149,0.225 -7.097,4.575 -7.097,4.575l-1.719,2.25l3.138,-0.225l-0.38989,1.73738c-1.73545,0.01763 -3.36502,0.47733 -4.78146,1.27187h-0.52253l-1.2724,-0.3181h-0.27864l-0.28038,-0.06231l-0.09346,0.06231h-3.80091l-1.2724,-0.3181h-4.77148l-1.2724,-0.3181h-0.27864l-0.28038,-0.06231l-0.09346,0.06231h-2.21041l-1.2724,-0.3181h-1.2724l-1.2724,-0.3181h-0.12182l1.62984,-2.09375l-5.678,-3.375l-5.305,-6.975l-1.419,-4.725l-1.27,-3.225l-2.466,2.775c0,0 -3.063,2.55 -3.287,2.475c-0.224,-0.075 -2.391,-2.1 -2.391,-2.1l-2.839,-6.174l-0.373,-5.376v-9.3h19.798l4.208,-1.575l14.919,-1.275l10.609,1.95c0,0 13.897,-3.075 14.42,-3.15z" fill="#fcb322" fill-rule="evenodd"/><path d="M232.23,191.15c0,0 1.27,3.075 1.419,3.3c0.15,0.225 3.811,3.075 3.811,3.075l4.707,3.825l-3.47341,1.34375h-0.05374l-0.35513,-0.07892l-2.22912,-0.55728h-0.27864l-0.28038,-0.06231l-0.09346,0.06231h-0.34316l-0.0781,-0.01952h-0.72421l-1.62468,-0.36104l-0.09517,-0.06057l-0.9543,-0.3181l-0.68382,-0.0526l-0.56987,-0.14247h-0.27864l-0.28038,-0.06231l-0.08902,0.05935l-1.26056,-0.31514h-0.11959l-0.68872,-0.15305l-1.39964,-0.69982l-0.70262,-0.15614l-0.60724,-0.38642l-0.1462,-0.04873l-1.03459,-1.03459l-1.37842,-0.82705l-1.22051,-1.04615l-0.71555,-0.35777l-0.43628,-0.29085l-1.05726,-0.37759l-0.28157,-0.28157l-1.37842,-0.82705l-0.49224,-0.42192l-0.2896,-0.31856l-0.36924,-0.24616l-0.05433,-0.04657c-0.37905,-1.25893 -0.99955,-2.41325 -1.80769,-3.40915l8.87348,0.544h7.172z" fill="#71cbd2" fill-rule="evenodd"/><path d="M213.593,188.181c-0.849,-1.227 -1.857,-2.262 -2.357,-3.502c-0.848,-2.105 -1.474,-4.316 -2.02,-6.526c-1.319,-5.332 -0.393,-10.413 1.945,-15.291c1.599,-3.338 3.302,-6.64 5.885,-9.324c1.708,-1.773 3.632,-3.347 5.531,-4.921c4.61,-3.821 10.101,-5.394 15.898,-6.185c3.185,-0.434 6.357,-0.972 9.806,-1.504c-0.446,-3.561 -0.902,-7.2 -1.362,-10.877c-0.959,-0.137 -1.78,-0.324 -2.606,-0.359c-3.531,-0.153 -5.411,-2.403 -6.919,-5.263c-2.418,-4.584 1.295,-9.533 5.474,-10.687c1.952,-0.539 3.854,-0.599 5.812,-0.176c2.629,0.566 4.251,2.352 5.199,4.675c0.59,1.447 0.764,3.089 0.969,4.664c0.317,2.432 -1.266,4.788 -3.605,5.576c-0.595,0.199 -1.19,0.399 -1.901,0.637c0.285,3.986 0.568,7.968 0.855,11.981c2.175,0.198 4.368,0.308 6.534,0.616c3.842,0.546 7.67,1.111 11.391,2.356c4.378,1.465 8.577,3.307 12.584,5.562c1.409,0.793 2.566,2.045 3.815,3.113c2.404,2.058 4.648,5.478 5.691,8.483c0.25,0.72 0.425,1.443 0.666,2.146c1.52,4.432 0.86,9.387 0.239,13.993c-0.443,3.292 -1.593,6.272 -2.995,9.156c-0.881,1.813 -2.214,3.464 -3.593,4.959c-3.192,3.46 -6.781,6.472 -11.089,8.463c-2.002,0.926 -4.069,1.753 -6.179,2.378c-0.54002,0.16019 -0.71262,0.4242 -0.78853,0.72211c-0.27489,-0.02269 -0.55293,-0.03426 -0.83367,-0.03426c-0.53979,0 -1.06958,0.04277 -1.58619,0.1251c0.00046,-0.00232 0.00092,-0.00463 0.00139,-0.00695c-1.68,0.267 -3.116,0.546 -4.565,0.714c-0.30529,0.03539 -0.611,0.06809 -0.91705,0.09812l-0.17224,-0.03828l-0.09346,0.06231h-3.80091l-1.2724,-0.3181h-3.48617c-0.77685,-0.14698 -1.55173,-0.2705 -2.32257,-0.25931l-0.23514,-0.05879h-0.27864l-0.28038,-0.06231l-0.09346,0.06231h-2.21041l-1.2724,-0.3181h-1.2724l-1.2724,-0.3181h-1.86914l-0.35513,-0.07892l-0.91537,-0.22884c0.30575,-0.02687 0.6113,-0.05279 0.91665,-0.07699c-2.876,-0.939 -5.706,-1.789 -8.483,-2.789c-3.641,-1.311 -7.153,-2.927 -10.299,-5.219c-1.42,-1.035 -2.737,-2.211 -4.082,-3.346c-0.307,-0.259 -0.534,-0.614 -0.797,-0.926c-0.04311,0.05025 -0.08767,0.09972 -0.13306,0.14874c-0.42794,-0.57345 -0.91594,-1.09946 -1.45468,-1.5687c0.16555,-0.12879 0.35427,-0.26093 0.55574,-0.42804zM250.904,162.622c-2.746,0.126 -5.506,0.763 -8.171,1.357c-2.437,0.544 -4.301,2.158 -6.128,3.723c-0.807,0.692 -1.475,1.674 -1.906,2.657c-1.377,3.136 -2.709,6.299 -3.852,9.527c-0.426,1.206 -0.576,2.671 -0.341,3.922c0.656,3.487 2.179,6.681 4.099,9.638c0.779,1.201 1.802,2.416 3.005,3.125c1.848,1.087 3.936,1.772 5.945,2.571c1.049,0.416 2.124,0.886 3.226,1.027c3.992,0.511 8.021,0.678 11.987,-0.082c4.349,-0.833 8.242,-2.813 11.692,-5.577c2.372,-1.9 3.661,-4.517 4.43,-7.445c1.05,-3.992 0.554,-7.269 -1.045,-10.964c-1.101,-2.544 -3.002,-5.43 -5.264,-7.051c-0.984,-0.705 -1.851,-1.589 -2.876,-2.225c-1.742,-1.081 -3.46,-2.446 -5.38,-2.937c-2.861,-0.732 -5.525,-1.288 -8.471,-1.288c-0.315,0 -0.633,0.008 -0.95,0.022zM264.344,200.424c0.452,0.256 0.527,0.336 0.589,0.327c0.332,-0.046 0.667,-0.09 0.99,-0.177c4.975,-1.343 9.512,-3.542 13.315,-7.079c1.749,-1.626 3.572,-3.24 4.994,-5.137c2.378,-3.174 3.919,-6.734 4.668,-10.739c0.86,-4.596 0.709,-9.03 -0.71,-13.421c-0.642,-1.984 -1.428,-3.962 -2.454,-5.768c-0.915,-1.61 -1.998,-3.327 -3.448,-4.391c-5.444,-3.99 -11.392,-6.983 -18.012,-8.624c-5.411,-1.34 -10.88,-2.182 -16.404,-1.758c-5.176,0.398 -10.365,0.912 -15.392,2.555c-3.653,1.194 -6.926,2.901 -9.891,5.303c-5.127,4.153 -8.802,9.354 -10.634,15.683c-0.694,2.398 -0.782,5.053 -0.692,7.575c0.074,2.087 0.774,4.16 1.279,6.218c0.282,1.154 0.5,2.422 1.142,3.37c2.375,3.511 4.795,7.016 8.665,9.124c1.658,0.903 3.205,2.034 4.917,2.806c2.282,1.029 4.652,1.883 7.031,2.671c1.471,0.487 3.028,0.712 4.791,1.108c-0.248,-0.333 -0.283,-0.435 -0.346,-0.458c-3.691,-1.33 -6.114,-3.969 -7.746,-7.461c-0.137,-0.293 -0.618,-0.593 -0.945,-0.599c-1.623,-0.031 -3.319,-0.191 -4.925,0.059c-0.927,0.144 -2.201,0.605 -2.835,-0.435c-1.093,-1.791 1.378,-1.59 2.272,-1.6c1.647,-0.018 3.328,-0.213 4.974,-0.318c-0.501,-1.762 -0.948,-3.332 -1.459,-5.127c-0.887,0.961 -1.536,1.788 -2.312,2.47c-0.854,0.75 -1.586,1.763 -2.969,1.632c-1.619,-0.152 -3.006,-0.673 -3.792,-2.201c-0.456,-0.887 -0.834,-1.816 -1.209,-2.741c-1.073,-2.643 -2.001,-5.335 -2.002,-8.231c0,-2.852 0.015,-5.708 0.163,-8.554c0.127,-2.415 0.844,-3.061 3.318,-3.15c2.366,-0.085 4.741,-0.12 7.106,-0.035c3.271,0.116 6.536,0.377 9.804,0.546c0.503,0.026 1.116,0.058 1.502,-0.189c2.89,-1.848 6.08,-2.798 9.432,-3.178c4.056,-0.46 8.127,-0.35 12.08,0.704c1.727,0.461 3.758,1.738 5.508,1.441c2.135,-0.364 4.382,-0.672 6.474,-1.239c1.348,-0.366 2.742,-0.535 4.106,-0.882c1.931,-0.491 4.589,-1.042 6.574,-0.624c1.471,0.31 2.358,2.353 2.951,3.697c1.324,2.999 1.795,6.26 1.94,9.512c0.141,3.159 0.451,6.111 0.083,9.259c-0.184,1.565 -1.634,2.754 -3.197,2.784c-1.957,0.039 -3.83,-0.405 -5.56,-1.642c-0.957,8.56 -5.874,13.824 -13.734,16.914zM217.634,173.465c0.053,4.052 1.44,7.687 3.254,11.187c0.584,1.129 1.489,1.357 2.509,0.639c4.449,-3.127 5.661,-7.88 7.386,-12.809c0.549,-1.568 1.006,-3.183 1.737,-4.679c0.505,-1.033 1.351,-2.232 -0.332,-2.478c-3.994,-0.584 -7.982,-0.313 -11.969,0.017c-1.214,0.1 -2.072,0.69 -2.173,2.016c-0.154,2.035 -0.276,4.071 -0.412,6.107zM268.564,165.292c0.832,0.753 1.51,1.496 2.31,2.067c3.119,2.229 4.624,5.516 5.627,9.003c0.679,2.364 1.317,4.527 3.632,5.851c1.886,1.078 4.081,0.55 4.402,-1.459c0.446,-2.782 0.363,-5.62 -0.288,-8.36c-0.406,-1.705 -0.389,-3.514 -0.939,-5.23c-0.44,-1.377 -1.047,-3.517 -2.346,-4.369c-1.847,-1.211 -5.332,0.207 -7.278,0.505c-1.801,0.278 -3.508,0.74 -5.12,1.992zM245.71,127.947c1.21,-0.356 3.209,-0.926 5.193,-1.547c0.29,-0.091 0.539,-0.398 0.75,-0.653c1.382,-1.67 1.296,-5.837 -0.139,-7.777c-1.849,-2.499 -4.379,-2.748 -7.178,-2.268c-2.689,0.462 -4.593,2.042 -5.471,4.48c-1.249,3.462 2.274,7.852 6.845,7.765z" fill="#2a3d98" fill-rule="nonzero"/></g><g fill="#2a3d98" fill-rule="evenodd"><path d="M254.994,181.245c-1.46,2.37 -3.728,3.68 -6.481,3.822c-2.448,0.126 -4.34,-1.226 -5.743,-3.204c-0.535,-0.756 -2.2,-2.708 -1.673,-3.561c1.361,-2.202 3.482,2.473 3.982,3.03c1.45,1.615 3.534,1.588 5.265,0.423c1.442,-0.969 2.515,-2.199 2.856,-4.112c-0.453,-0.028 -0.887,-0.036 -1.318,-0.085c-0.82,-0.096 -1.408,-0.614 -1.281,-1.39c0.072,-0.437 0.712,-1.001 1.184,-1.108c1.312,-0.292 2.668,-0.439 4.013,-0.499c0.375,-0.017 1.024,0.409 1.1,0.736c0.114,0.488 0.007,1.255 -0.323,1.568c-0.655,0.621 -0.536,1.096 -0.148,1.736c1.938,3.191 6.619,2.991 8.469,-0.453c0.551,-1.024 0.764,-2.26 0.977,-3.427c0.15,-0.816 0.266,-1.347 1.294,-1.227c1.079,0.126 1.576,0.882 1.498,1.698c-0.455,4.73 -3.905,9.375 -9.738,7.762c-1.334,-0.368 -2.568,-1.104 -3.933,-1.709z"/><path d="M258.939,169.692c0.624,-0.564 1.854,-0.161 2.241,0.67c0.523,1.124 -0.192,2.657 -1.537,2.39c-0.979,-0.195 -1.182,-1.552 -1.049,-2.372c0.049,-0.309 0.174,-0.535 0.345,-0.688z"/><path d="M246.891,170.964c0.135,-0.756 0.42,-1.508 1.421,-1.536c0.759,-0.021 1.801,1.305 1.59,2.216c-0.1,0.432 -0.777,0.955 -1.251,1.024c-0.868,0.125 -1.777,-0.843 -1.76,-1.704z"/></g><g><path d="M316.0755,202.14662l-10.103,-0.6l-16.089,-5.875l-8.716,-8.925l-4.247,-15.094l6.127,-14.531l9.875,-8.775l10.36,-3.7l11.274,-1.6l11.666,0.9l12.225,3.2l12.252,5.9l5.778,8l0.997,4.6l0.996,8.378l-1.594,8.322l-4.184,8.1l-5.479,5.2l-9.065,5.1l-13.249,2.6l-8.824,-1.2" fill="#ffffff" fill-rule="evenodd"/><path d="M315.3605,114.67162l3.213,1.5l2.914,4.5l-0.822,6.15l-6.109,2.7l-5.896,-1.275l-3.461,-5.325l0.897,-4.05l4.558,-3.3l4.706,-0.9" fill="#ef463c" fill-rule="evenodd"/><path d="M350.9245,164.09662l2.54,11.4v8.175l-4.856,0.9l-4.184,-2.925l-0.897,5.625c0,0 -4.109,7.725 -4.259,7.95c-0.149,0.225 -7.097,4.575 -7.097,4.575l-1.719,2.25l3.138,-0.225l-0.38989,1.73738c-1.73545,0.01763 -3.36502,0.47733 -4.78146,1.27187h-0.52253l-1.2724,-0.3181h-0.27864l-0.28038,-0.06231l-0.09346,0.06231h-3.80091l-1.2724,-0.3181h-4.77148l-1.2724,-0.3181h-0.27864l-0.28038,-0.06231l-0.09346,0.06231h-2.21041l-1.2724,-0.3181h-1.2724l-1.2724,-0.3181h-0.12182l1.62984,-2.09375l-5.678,-3.375l-5.305,-6.975l-1.419,-4.725l-1.27,-3.225l-2.466,2.775c0,0 -3.063,2.55 -3.287,2.475c-0.224,-0.075 -2.391,-2.1 -2.391,-2.1l-2.839,-6.174l-0.373,-5.376v-9.3h19.798l4.208,-1.575l14.919,-1.275l10.609,1.95c0,0 13.897,-3.075 14.42,-3.15z" fill="#fcb322" fill-rule="evenodd"/><path d="M299.8955,191.69662c0,0 1.27,3.075 1.419,3.3c0.15,0.225 3.811,3.075 3.811,3.075l4.707,3.825l-3.47341,1.34375h-0.05374l-0.35513,-0.07892l-2.22912,-0.55728h-0.27864l-0.28038,-0.06231l-0.09346,0.06231h-0.34316l-0.0781,-0.01952h-0.72421l-1.62468,-0.36104l-0.09517,-0.06057l-0.9543,-0.3181l-0.68382,-0.0526l-0.56987,-0.14247h-0.27864l-0.28038,-0.06231l-0.08902,0.05935l-1.26056,-0.31514h-0.11959l-0.68872,-0.15305l-1.39964,-0.69982l-0.70262,-0.15614l-0.60724,-0.38642l-0.1462,-0.04873l-1.03459,-1.03459l-1.37842,-0.82705l-1.22051,-1.04615l-0.71555,-0.35777l-0.43628,-0.29085l-1.05726,-0.37759l-0.28157,-0.28157l-1.37842,-0.82705l-0.49224,-0.42192l-0.2896,-0.31856l-0.36924,-0.24616l-0.05433,-0.04657c-0.37905,-1.25893 -0.99955,-2.41325 -1.80769,-3.40915l8.87348,0.544h7.172z" fill="#71cbd2" fill-rule="evenodd"/><path d="M281.2585,188.72762c-0.849,-1.227 -1.857,-2.262 -2.357,-3.502c-0.848,-2.105 -1.474,-4.316 -2.02,-6.526c-1.319,-5.332 -0.393,-10.413 1.945,-15.291c1.599,-3.338 3.302,-6.64 5.885,-9.324c1.708,-1.773 3.632,-3.347 5.531,-4.921c4.61,-3.821 10.101,-5.394 15.898,-6.185c3.185,-0.434 6.357,-0.972 9.806,-1.504c-0.446,-3.561 -0.902,-7.2 -1.362,-10.877c-0.959,-0.137 -1.78,-0.324 -2.606,-0.359c-3.531,-0.153 -5.411,-2.403 -6.919,-5.263c-2.418,-4.584 1.295,-9.533 5.474,-10.687c1.952,-0.539 3.854,-0.599 5.812,-0.176c2.629,0.566 4.251,2.352 5.199,4.675c0.59,1.447 0.764,3.089 0.969,4.664c0.317,2.432 -1.266,4.788 -3.605,5.576c-0.595,0.199 -1.19,0.399 -1.901,0.637c0.285,3.986 0.568,7.968 0.855,11.981c2.175,0.198 4.368,0.308 6.534,0.616c3.842,0.546 7.67,1.111 11.391,2.356c4.378,1.465 8.577,3.307 12.584,5.562c1.409,0.793 2.566,2.045 3.815,3.113c2.404,2.058 4.648,5.478 5.691,8.483c0.25,0.72 0.425,1.443 0.666,2.146c1.52,4.432 0.86,9.387 0.239,13.993c-0.443,3.292 -1.593,6.272 -2.995,9.156c-0.881,1.813 -2.214,3.464 -3.593,4.959c-3.192,3.46 -6.781,6.472 -11.089,8.463c-2.002,0.926 -4.069,1.753 -6.179,2.378c-0.54002,0.16019 -0.71262,0.4242 -0.78853,0.72211c-0.27489,-0.02269 -0.55293,-0.03426 -0.83367,-0.03426c-0.53979,0 -1.06958,0.04277 -1.58619,0.1251c0.00046,-0.00232 0.00092,-0.00463 0.00139,-0.00695c-1.68,0.267 -3.116,0.546 -4.565,0.714c-0.30529,0.03539 -0.611,0.06809 -0.91705,0.09812l-0.17224,-0.03828l-0.09346,0.06231h-3.80091l-1.2724,-0.3181h-3.48617c-0.77685,-0.14698 -1.55173,-0.2705 -2.32257,-0.25931l-0.23514,-0.05879h-0.27864l-0.28038,-0.06231l-0.09346,0.06231h-2.21041l-1.2724,-0.3181h-1.2724l-1.2724,-0.3181h-1.86914l-0.35513,-0.07892l-0.91537,-0.22884c0.30575,-0.02687 0.6113,-0.05279 0.91665,-0.07699c-2.876,-0.939 -5.706,-1.789 -8.483,-2.789c-3.641,-1.311 -7.153,-2.927 -10.299,-5.219c-1.42,-1.035 -2.737,-2.211 -4.082,-3.346c-0.307,-0.259 -0.534,-0.614 -0.797,-0.926c-0.04311,0.05025 -0.08767,0.09972 -0.13306,0.14874c-0.42794,-0.57345 -0.91594,-1.09946 -1.45468,-1.5687c0.16555,-0.12879 0.35427,-0.26093 0.55574,-0.42804zM318.5695,163.16862c-2.746,0.126 -5.506,0.763 -8.171,1.357c-2.437,0.544 -4.301,2.158 -6.128,3.723c-0.807,0.692 -1.475,1.674 -1.906,2.657c-1.377,3.136 -2.709,6.299 -3.852,9.527c-0.426,1.206 -0.576,2.671 -0.341,3.922c0.656,3.487 2.179,6.681 4.099,9.638c0.779,1.201 1.802,2.416 3.005,3.125c1.848,1.087 3.936,1.772 5.945,2.571c1.049,0.416 2.124,0.886 3.226,1.027c3.992,0.511 8.021,0.678 11.987,-0.082c4.349,-0.833 8.242,-2.813 11.692,-5.577c2.372,-1.9 3.661,-4.517 4.43,-7.445c1.05,-3.992 0.554,-7.269 -1.045,-10.964c-1.101,-2.544 -3.002,-5.43 -5.264,-7.051c-0.984,-0.705 -1.851,-1.589 -2.876,-2.225c-1.742,-1.081 -3.46,-2.446 -5.38,-2.937c-2.861,-0.732 -5.525,-1.288 -8.471,-1.288c-0.315,0 -0.633,0.008 -0.95,0.022zM332.0095,200.97062c0.452,0.256 0.527,0.336 0.589,0.327c0.332,-0.046 0.667,-0.09 0.99,-0.177c4.975,-1.343 9.512,-3.542 13.315,-7.079c1.749,-1.626 3.572,-3.24 4.994,-5.137c2.378,-3.174 3.919,-6.734 4.668,-10.739c0.86,-4.596 0.709,-9.03 -0.71,-13.421c-0.642,-1.984 -1.428,-3.962 -2.454,-5.768c-0.915,-1.61 -1.998,-3.327 -3.448,-4.391c-5.444,-3.99 -11.392,-6.983 -18.012,-8.624c-5.411,-1.34 -10.88,-2.182 -16.404,-1.758c-5.176,0.398 -10.365,0.912 -15.392,2.555c-3.653,1.194 -6.926,2.901 -9.891,5.303c-5.127,4.153 -8.802,9.354 -10.634,15.683c-0.694,2.398 -0.782,5.053 -0.692,7.575c0.074,2.087 0.774,4.16 1.279,6.218c0.282,1.154 0.5,2.422 1.142,3.37c2.375,3.511 4.795,7.016 8.665,9.124c1.658,0.903 3.205,2.034 4.917,2.806c2.282,1.029 4.652,1.883 7.031,2.671c1.471,0.487 3.028,0.712 4.791,1.108c-0.248,-0.333 -0.283,-0.435 -0.346,-0.458c-3.691,-1.33 -6.114,-3.969 -7.746,-7.461c-0.137,-0.293 -0.618,-0.593 -0.945,-0.599c-1.623,-0.031 -3.319,-0.191 -4.925,0.059c-0.927,0.144 -2.201,0.605 -2.835,-0.435c-1.093,-1.791 1.378,-1.59 2.272,-1.6c1.647,-0.018 3.328,-0.213 4.974,-0.318c-0.501,-1.762 -0.948,-3.332 -1.459,-5.127c-0.887,0.961 -1.536,1.788 -2.312,2.47c-0.854,0.75 -1.586,1.763 -2.969,1.632c-1.619,-0.152 -3.006,-0.673 -3.792,-2.201c-0.456,-0.887 -0.834,-1.816 -1.209,-2.741c-1.073,-2.643 -2.001,-5.335 -2.002,-8.231c0,-2.852 0.015,-5.708 0.163,-8.554c0.127,-2.415 0.844,-3.061 3.318,-3.15c2.366,-0.085 4.741,-0.12 7.106,-0.035c3.271,0.116 6.536,0.377 9.804,0.546c0.503,0.026 1.116,0.058 1.502,-0.189c2.89,-1.848 6.08,-2.798 9.432,-3.178c4.056,-0.46 8.127,-0.35 12.08,0.704c1.727,0.461 3.758,1.738 5.508,1.441c2.135,-0.364 4.382,-0.672 6.474,-1.239c1.348,-0.366 2.742,-0.535 4.106,-0.882c1.931,-0.491 4.589,-1.042 6.574,-0.624c1.471,0.31 2.358,2.353 2.951,3.697c1.324,2.999 1.795,6.26 1.94,9.512c0.141,3.159 0.451,6.111 0.083,9.259c-0.184,1.565 -1.634,2.754 -3.197,2.784c-1.957,0.039 -3.83,-0.405 -5.56,-1.642c-0.957,8.56 -5.874,13.824 -13.734,16.914zM285.2995,174.01162c0.053,4.052 1.44,7.687 3.254,11.187c0.584,1.129 1.489,1.357 2.509,0.639c4.449,-3.127 5.661,-7.88 7.386,-12.809c0.549,-1.568 1.006,-3.183 1.737,-4.679c0.505,-1.033 1.351,-2.232 -0.332,-2.478c-3.994,-0.584 -7.982,-0.313 -11.969,0.017c-1.214,0.1 -2.072,0.69 -2.173,2.016c-0.154,2.035 -0.276,4.071 -0.412,6.107zM336.2295,165.83862c0.832,0.753 1.51,1.496 2.31,2.067c3.119,2.229 4.624,5.516 5.627,9.003c0.679,2.364 1.317,4.527 3.632,5.851c1.886,1.078 4.081,0.55 4.402,-1.459c0.446,-2.782 0.363,-5.62 -0.288,-8.36c-0.406,-1.705 -0.389,-3.514 -0.939,-5.23c-0.44,-1.377 -1.047,-3.517 -2.346,-4.369c-1.847,-1.211 -5.332,0.207 -7.278,0.505c-1.801,0.278 -3.508,0.74 -5.12,1.992zM313.3755,128.49362c1.21,-0.356 3.209,-0.926 5.193,-1.547c0.29,-0.091 0.539,-0.398 0.75,-0.653c1.382,-1.67 1.296,-5.837 -0.139,-7.777c-1.849,-2.499 -4.379,-2.748 -7.178,-2.268c-2.689,0.462 -4.593,2.042 -5.471,4.48c-1.249,3.462 2.274,7.852 6.845,7.765z" fill="#2a3d98" fill-rule="nonzero"/></g><g fill="#2a3d98" fill-rule="evenodd"><path d="M322.6595,181.79162c-1.46,2.37 -3.728,3.68 -6.481,3.822c-2.448,0.126 -4.34,-1.226 -5.743,-3.204c-0.535,-0.756 -2.2,-2.708 -1.673,-3.561c1.361,-2.202 3.482,2.473 3.982,3.03c1.45,1.615 3.534,1.588 5.265,0.423c1.442,-0.969 2.515,-2.199 2.856,-4.112c-0.453,-0.028 -0.887,-0.036 -1.318,-0.085c-0.82,-0.096 -1.408,-0.614 -1.281,-1.39c0.072,-0.437 0.712,-1.001 1.184,-1.108c1.312,-0.292 2.668,-0.439 4.013,-0.499c0.375,-0.017 1.024,0.409 1.1,0.736c0.114,0.488 0.007,1.255 -0.323,1.568c-0.655,0.621 -0.536,1.096 -0.148,1.736c1.938,3.191 6.619,2.991 8.469,-0.453c0.551,-1.024 0.764,-2.26 0.977,-3.427c0.15,-0.816 0.266,-1.347 1.294,-1.227c1.079,0.126 1.576,0.882 1.498,1.698c-0.455,4.73 -3.905,9.375 -9.738,7.762c-1.334,-0.368 -2.568,-1.104 -3.933,-1.709z"/><path d="M326.6045,170.23862c0.624,-0.564 1.854,-0.161 2.241,0.67c0.523,1.124 -0.192,2.657 -1.537,2.39c-0.979,-0.195 -1.182,-1.552 -1.049,-2.372c0.049,-0.309 0.174,-0.535 0.345,-0.688z"/><path d="M314.5565,171.51062c0.135,-0.756 0.42,-1.508 1.421,-1.536c0.759,-0.021 1.801,1.305 1.59,2.216c-0.1,0.432 -0.777,0.955 -1.251,1.024c-0.868,0.125 -1.777,-0.843 -1.76,-1.704z"/></g></g></g></svg>